<?xml version="1.0" standalone="no"?>
<!DOCTYPE svg PUBLIC "-//W3C//DTD SVG 20010904//EN"
 "http://www.w3.org/TR/2001/REC-SVG-20010904/DTD/svg10.dtd">
<svg version="1.0" xmlns="http://www.w3.org/2000/svg"
 width="500.000000pt" height="500.000000pt" viewBox="0 0 500.000000 500.000000"
 preserveAspectRatio="xMidYMid meet">
<metadata>
Created by potrace 1.14, written by Peter Selinger 2001-2017
</metadata>
<g transform="translate(0.000000,500.000000) scale(0.100000,-0.100000)"
fill="#000000" stroke="none">
<path d="M2606 4131 c-7 -11 18 -33 27 -24 4 3 7 12 7 20 0 15 -26 18 -34 4z"/>
<path d="M2661 4051 c-10 -6 -10 -10 -1 -16 13 -8 24 -1 19 14 -3 6 -10 7 -18
2z"/>
<path d="M2190 4040 c0 -13 18 -22 24 -11 3 5 -1 11 -9 15 -8 3 -15 1 -15 -4z"/>
<path d="M2418 4013 c7 -3 16 -2 19 1 4 3 -2 6 -13 5 -11 0 -14 -3 -6 -6z"/>
<path d="M2557 4014 c-4 -4 -4 -10 -1 -15 6 -10 34 0 34 12 0 10 -24 12 -33 3z"/>
<path d="M2258 4003 c6 -2 18 -2 25 0 6 3 1 5 -13 5 -14 0 -19 -2 -12 -5z"/>
<path d="M2188 3993 c7 -3 16 -2 19 1 4 3 -2 6 -13 5 -11 0 -14 -3 -6 -6z"/>
<path d="M3000 3950 c0 -5 5 -10 10 -10 6 0 10 5 10 10 0 6 -4 10 -10 10 -5 0
-10 -4 -10 -10z"/>
<path d="M2630 3921 c0 -6 5 -13 10 -16 6 -3 10 1 10 9 0 9 -4 16 -10 16 -5 0
-10 -4 -10 -9z"/>
<path d="M1875 3910 c-3 -5 -1 -10 4 -10 6 0 11 5 11 10 0 6 -2 10 -4 10 -3 0
-8 -4 -11 -10z"/>
<path d="M2268 3913 c17 -2 47 -2 65 0 17 2 3 4 -33 4 -36 0 -50 -2 -32 -4z"/>
<path d="M2376 3908 c3 -4 33 -8 67 -7 72 1 66 6 -15 12 -31 2 -55 0 -52 -5z"/>
<path d="M2138 3903 c6 -2 18 -2 25 0 6 3 1 5 -13 5 -14 0 -19 -2 -12 -5z"/>
<path d="M2223 3879 c-276 -58 -533 -200 -733 -404 l-65 -66 90 41 c52 24 110
59 136 83 25 23 48 42 50 43 2 1 36 21 74 46 39 25 95 58 125 73 29 15 66 36
81 48 16 11 35 17 44 13 9 -3 14 -2 10 3 -7 12 61 35 81 27 10 -4 13 -2 8 6
-5 7 0 9 14 6 14 -4 20 -2 16 4 -5 7 2 9 19 6 15 -3 24 -2 22 2 -2 4 30 13 73
20 155 24 242 64 122 55 -51 -3 -68 -2 -55 4 l20 10 -20 0 c-11 0 -61 -9 -112
-20z m-503 -279 c0 -5 -2 -10 -4 -10 -3 0 -8 5 -11 10 -3 6 -1 10 4 10 6 0 11
-4 11 -10z"/>
<path d="M2906 3871 c-3 -5 1 -11 9 -15 8 -3 15 -1 15 4 0 13 -18 22 -24 11z"/>
<path d="M3000 3840 c0 -13 18 -22 24 -11 3 5 -1 11 -9 15 -8 3 -15 1 -15 -4z"/>
<path d="M1886 3801 c-3 -5 1 -11 9 -15 8 -3 15 -1 15 4 0 13 -18 22 -24 11z"/>
<path d="M2886 3783 c-9 -22 10 -41 25 -26 13 13 5 43 -10 43 -5 0 -12 -8 -15
-17z"/>
<path d="M1523 3698 c-11 -19 -13 -39 -1 -32 5 3 7 9 4 12 -3 3 -1 11 5 19 6
7 9 13 6 13 -3 0 -9 -6 -14 -12z"/>
<path d="M1440 3690 c0 -5 5 -10 10 -10 6 0 10 5 10 10 0 6 -4 10 -10 10 -5 0
-10 -4 -10 -10z"/>
<path d="M1394 3577 c-104 -108 -119 -130 -99 -147 8 -6 19 -9 25 -5 14 8 13
32 -1 37 -9 3 -9 9 -1 24 11 21 97 104 151 145 18 15 29 29 24 32 -5 3 -50
-35 -99 -86z"/>
<path d="M1545 3649 c-4 -6 -5 -13 -2 -16 7 -7 27 6 27 18 0 12 -17 12 -25 -2z"/>
<path d="M3380 3650 c0 -5 5 -10 11 -10 5 0 7 5 4 10 -3 6 -8 10 -11 10 -2 0
-4 -4 -4 -10z"/>
<path d="M3285 3590 c3 -5 8 -10 11 -10 2 0 4 5 4 10 0 6 -5 10 -11 10 -5 0
-7 -4 -4 -10z"/>
<path d="M1470 3571 c0 -17 18 -21 24 -6 3 9 0 15 -9 15 -8 0 -15 -4 -15 -9z"/>
<path d="M3590 3415 c0 -8 5 -15 10 -15 6 0 10 7 10 15 0 8 -4 15 -10 15 -5 0
-10 -7 -10 -15z"/>
<path d="M860 3410 c0 -5 5 -10 10 -10 6 0 10 5 10 10 0 6 -4 10 -10 10 -5 0
-10 -4 -10 -10z"/>
<path d="M3720 3390 c0 -5 5 -10 10 -10 6 0 10 5 10 10 0 6 -4 10 -10 10 -5 0
-10 -4 -10 -10z"/>
<path d="M3510 3380 c-13 -8 -13 -11 2 -26 16 -17 18 -17 24 0 9 23 -7 38 -26
26z"/>
<path d="M1340 3360 c-13 -8 -12 -10 3 -10 9 0 17 5 17 10 0 12 -1 12 -20 0z"/>
<path d="M1230 3335 c0 -9 6 -12 15 -9 8 4 12 10 9 15 -8 14 -24 10 -24 -6z"/>
<path d="M3630 3321 c0 -6 5 -13 10 -16 6 -3 10 1 10 9 0 9 -4 16 -10 16 -5 0
-10 -4 -10 -9z"/>
<path d="M1297 3243 c-12 -11 -8 -23 8 -23 8 0 15 7 15 15 0 16 -12 20 -23 8z"/>
<path d="M2341 3034 c-93 -89 -103 -95 -137 -92 l-37 3 67 71 c64 70 78 94 55
94 -7 0 -56 -44 -110 -97 l-99 -97 -60 0 c-48 -1 -60 -4 -58 -16 2 -8 17 -22
33 -30 l31 -14 -26 -48 c-23 -43 -24 -49 -9 -63 14 -14 20 -9 62 54 37 53 54
70 78 75 57 11 59 8 23 -45 -33 -49 -43 -92 -25 -103 5 -3 38 34 74 83 63 86
66 89 110 92 l45 4 -39 -43 c-49 -53 -64 -88 -50 -119 17 -37 65 -28 121 22
14 12 39 27 57 33 l31 10 -5 -34 c-12 -76 39 -83 126 -19 l61 45 0 -28 c0 -62
39 -67 136 -18 38 19 69 34 70 33 1 -1 6 -15 11 -32 7 -23 16 -31 40 -33 24
-2 47 9 109 57 78 58 145 121 130 121 -4 0 -35 -20 -69 -44 -70 -50 -154 -93
-163 -84 -16 16 14 52 84 101 42 30 104 82 136 116 54 58 58 64 42 79 -15 15
-20 14 -68 -10 -64 -31 -147 -103 -198 -173 -26 -35 -56 -61 -96 -82 -65 -34
-124 -51 -124 -35 0 26 14 42 37 42 50 0 128 62 121 97 -6 36 -58 28 -127 -19
-113 -77 -195 -128 -209 -128 -22 0 15 59 82 125 l61 62 89 7 c50 3 92 9 95
11 10 11 -14 20 -67 25 -56 5 -60 8 -47 43 12 29 -31 21 -54 -11 -19 -27 -28
-30 -126 -42 -89 -10 -104 -14 -94 -26 7 -9 32 -14 72 -14 l61 0 -39 -41 c-34
-34 -115 -88 -115 -75 0 2 7 20 15 41 21 48 11 59 -65 75 -33 7 -60 16 -60 19
0 4 32 38 70 76 39 38 70 75 70 82 0 29 -33 8 -129 -83z m780 -23 c-13 -23
-130 -125 -137 -119 -4 5 132 138 142 138 2 0 0 -8 -5 -19z m-301 -120 c0 -10
-62 -51 -76 -51 -10 1 57 59 69 60 4 0 7 -4 7 -9z m-400 -30 c-6 -12 -16 -19
-21 -15 -6 4 -4 13 7 25 21 24 29 18 14 -10z m-46 -38 c7 -18 -29 -63 -51 -63
-18 0 -16 9 7 48 22 36 35 40 44 15z"/>
<path d="M1218 3103 c7 -3 16 -2 19 1 4 3 -2 6 -13 5 -11 0 -14 -3 -6 -6z"/>
<path d="M3625 2950 c-3 -5 -1 -10 4 -10 6 0 11 5 11 10 0 6 -2 10 -4 10 -3 0
-8 -4 -11 -10z"/>
<path d="M1040 2915 c0 -8 2 -15 4 -15 2 0 6 7 10 15 3 8 1 15 -4 15 -6 0 -10
-7 -10 -15z"/>
<path d="M3880 2794 c0 -8 5 -12 10 -9 6 3 10 10 10 16 0 5 -4 9 -10 9 -5 0
-10 -7 -10 -16z"/>
<path d="M3780 2780 c0 -15 5 -20 18 -18 9 2 17 10 17 18 0 8 -8 16 -17 18
-13 2 -18 -3 -18 -18z"/>
<path d="M4692 2765 c-72 -20 -184 -77 -327 -167 -140 -88 -189 -113 -264
-139 -68 -24 -176 -25 -233 -2 -66 25 -70 30 -52 65 23 44 29 129 11 152 -19
26 -45 15 -59 -24 -9 -29 -12 -30 -27 -16 -26 23 -68 20 -76 -4 -9 -27 12 -58
70 -106 33 -27 42 -39 33 -45 -27 -18 -97 -9 -162 21 -102 46 -164 61 -251 61
-103 0 -195 -23 -301 -76 -57 -29 -84 -38 -84 -29 0 41 -90 -22 -163 -113 -41
-51 -51 -59 -75 -55 -21 3 -51 -12 -135 -69 -59 -40 -110 -70 -113 -66 -4 3
13 29 37 58 41 49 42 52 24 65 -37 27 -80 12 -197 -70 -35 -24 -78 -51 -95
-60 -56 -28 -41 7 22 55 31 23 54 47 52 53 -2 6 -24 11 -48 12 -24 0 -54 6
-66 12 -45 24 -83 6 -52 -25 7 -7 -11 -24 -60 -58 -39 -27 -74 -46 -77 -42 -4
3 13 29 37 58 41 49 42 52 24 65 -26 19 -49 18 -97 -7 -50 -26 -136 -111 -144
-144 -14 -55 25 -60 84 -9 l42 36 0 -31 c0 -16 4 -32 8 -35 11 -7 61 25 142
89 51 40 73 52 89 48 22 -5 21 -7 -14 -43 -28 -29 -36 -44 -33 -66 4 -39 36
-43 93 -11 l44 25 3 -22 c5 -34 39 -31 86 9 l42 37 0 -30 c0 -42 9 -45 56 -17
l43 25 3 -22 c5 -34 30 -33 80 5 l44 34 -4 -28 c-8 -54 46 -52 121 6 l47 36 0
-34 c0 -59 42 -63 118 -12 51 35 52 35 52 12 0 -56 48 -61 141 -13 l67 34 6
-29 c7 -39 42 -47 93 -20 48 24 183 130 183 143 0 10 -11 5 -55 -28 -16 -12
-40 -27 -52 -33 -21 -11 -22 -10 -13 16 20 66 20 92 0 103 -17 9 -31 0 -97
-55 -129 -109 -253 -159 -227 -91 3 9 16 15 28 14 28 -3 112 46 127 73 21 40
-33 65 -84 38 -12 -7 -42 -29 -67 -49 -49 -40 -149 -100 -169 -100 -16 0 10
49 49 94 17 18 30 36 30 40 0 17 -46 2 -80 -26 -53 -46 -164 -110 -168 -98 -7
19 71 109 172 202 82 75 118 99 200 139 115 54 176 69 279 69 84 0 144 -15
244 -59 95 -41 124 -46 160 -28 28 15 34 14 94 -10 108 -44 209 -33 349 37 30
16 126 71 213 123 203 123 281 152 402 152 70 -1 100 -5 138 -22 26 -12 47
-18 47 -14 0 5 -19 17 -42 26 -58 24 -197 29 -266 10z m-872 -105 c14 -26 2
-115 -19 -141 -16 -20 -17 -20 -62 16 -46 35 -74 78 -64 96 9 14 42 11 59 -6
16 -17 36 -20 36 -6 0 20 20 61 29 61 6 0 15 -9 21 -20z m-673 -417 c-9 -10
-31 -27 -49 -37 l-33 -19 34 37 c19 20 41 36 50 36 12 0 12 -3 -2 -17z m-1107
2 c0 -9 -122 -106 -128 -101 -7 8 26 44 72 77 36 27 56 35 56 24z m460 0 c0
-9 -122 -106 -128 -101 -7 8 26 44 72 77 36 27 56 35 56 24z m195 -31 c-58
-51 -95 -77 -95 -67 0 11 68 77 95 91 39 22 39 11 0 -24z m620 -3 c-14 -63
-63 -99 -94 -68 -10 10 -2 21 41 59 29 25 55 45 56 43 2 -2 1 -17 -3 -34z"/>
<path d="M3990 2730 c0 -5 5 -10 10 -10 6 0 10 5 10 10 0 6 -4 10 -10 10 -5 0
-10 -4 -10 -10z"/>
<path d="M864 2680 c-71 -36 -120 -75 -106 -84 6 -3 29 10 53 30 68 57 97 68
169 68 76 -1 106 -14 225 -99 93 -67 152 -105 162 -105 4 0 -17 16 -47 36 -30
20 -84 59 -120 87 -128 101 -230 121 -336 67z"/>
<path d="M3880 2696 c0 -8 4 -17 9 -21 6 -3 9 4 8 15 -1 23 -17 28 -17 6z"/>
<path d="M1030 2556 c0 -2 7 -9 15 -16 12 -10 15 -10 15 4 0 9 -7 16 -15 16
-8 0 -15 -2 -15 -4z"/>
<path d="M1600 2519 c-19 -16 -48 -34 -65 -38 -17 -5 -22 -10 -12 -10 25 -1
67 22 96 53 32 34 24 32 -19 -5z"/>
<path d="M1150 2500 c0 -15 5 -20 18 -18 9 2 17 10 17 18 0 8 -8 16 -17 18
-13 2 -18 -3 -18 -18z"/>
<path d="M1390 2480 c8 -5 22 -9 30 -9 10 0 8 3 -5 9 -27 12 -43 12 -25 0z"/>
<path d="M955 2470 c-3 -5 -1 -10 4 -10 6 0 11 5 11 10 0 6 -2 10 -4 10 -3 0
-8 -4 -11 -10z"/>
<path d="M1085 2460 c-4 -6 -2 -17 4 -23 15 -15 25 -2 13 19 -7 12 -11 13 -17
4z"/>
<path d="M1468 2463 c6 -2 18 -2 25 0 6 3 1 5 -13 5 -14 0 -19 -2 -12 -5z"/>
<path d="M2965 2350 c-14 -15 -16 -23 -7 -32 14 -14 62 15 62 37 0 22 -34 18
-55 -5z"/>
<path d="M3735 2350 c-3 -5 -2 -10 4 -10 5 0 13 5 16 10 3 6 2 10 -4 10 -5 0
-13 -4 -16 -10z"/>
<path d="M1739 2273 c-80 -83 -239 -267 -276 -319 -21 -29 -21 -33 -7 -45 14
-11 19 -10 36 11 67 84 144 170 157 175 8 3 19 1 25 -5 27 -27 107 4 164 63
25 26 33 42 30 63 -3 26 -7 29 -35 28 -20 -1 -53 -16 -84 -39 l-52 -37 22 31
c12 16 45 50 73 75 35 30 49 49 45 60 -4 9 -10 16 -15 16 -5 0 -42 -35 -83
-77z m76 -83 c-23 -25 -108 -80 -124 -80 -21 0 0 21 62 61 66 43 90 50 62 19z"/>
<path d="M1167 2153 c-4 -3 -7 -11 -7 -17 0 -6 5 -5 12 2 6 6 9 14 7 17 -3 3
-9 2 -12 -2z"/>
<path d="M3440 1829 c0 -5 5 -7 10 -4 6 3 10 8 10 11 0 2 -4 4 -10 4 -5 0 -10
-5 -10 -11z"/>
<path d="M3553 1825 c0 -9 4 -14 9 -13 5 2 10 8 10 13 0 5 -5 11 -10 13 -5 1
-9 -4 -9 -13z"/>
<path d="M1422 1803 c4 -21 33 -25 33 -3 0 8 -8 16 -18 18 -14 3 -18 -1 -15
-15z"/>
<path d="M1290 1801 c0 -5 7 -11 15 -15 9 -3 15 0 15 9 0 8 -7 15 -15 15 -8 0
-15 -4 -15 -9z"/>
<path d="M1370 1726 c0 -9 7 -16 16 -16 17 0 14 22 -4 28 -7 2 -12 -3 -12 -12z"/>
<path d="M3510 1725 c0 -8 4 -15 9 -15 5 0 11 7 15 15 3 9 0 15 -9 15 -8 0
-15 -7 -15 -15z"/>
<path d="M3595 1721 c-8 -15 3 -31 21 -31 9 0 14 7 12 17 -4 20 -24 28 -33 14z"/>
<path d="M1250 1689 c0 -5 5 -7 10 -4 6 3 10 8 10 11 0 2 -4 4 -10 4 -5 0 -10
-5 -10 -11z"/>
<path d="M3642 1563 c2 -10 10 -18 18 -18 8 0 16 8 18 18 2 12 -3 17 -18 17
-15 0 -20 -5 -18 -17z"/>
<path d="M3312 1524 l-37 -36 43 32 c23 17 42 34 42 36 0 10 -13 1 -48 -32z"/>
<path d="M3701 1491 c-10 -6 -10 -10 -1 -16 13 -8 24 -1 19 14 -3 6 -10 7 -18
2z"/>
<path d="M3232 1479 c1 -9 -8 -26 -22 -38 -20 -18 -21 -20 -4 -12 34 16 49 40
35 54 -10 9 -12 9 -9 -4z"/>
<path d="M3595 1450 c-3 -5 1 -10 9 -10 9 0 16 5 16 10 0 6 -4 10 -9 10 -6 0
-13 -4 -16 -10z"/>
<path d="M1855 1430 c-8 -14 3 -30 21 -30 8 0 14 9 14 20 0 21 -24 28 -35 10z"/>
<path d="M2847 1424 c-14 -14 -7 -35 11 -32 9 2 17 10 17 17 0 16 -18 25 -28
15z"/>
<path d="M3295 1346 c-134 -92 -280 -159 -440 -202 -90 -24 -120 -27 -295 -30
-112 -1 -178 1 -155 5 l40 8 -35 1 c-46 2 -61 -8 -53 -37 6 -22 6 -22 174 -19
150 4 170 6 182 23 9 11 16 14 21 7 7 -11 124 17 240 57 85 30 228 104 310
161 69 49 146 110 136 109 -3 -1 -59 -38 -125 -83z"/>
<path d="M1746 1371 c-3 -5 1 -11 9 -15 9 -3 15 0 15 9 0 16 -16 20 -24 6z"/>
<path d="M2925 1359 c-4 -6 -5 -13 -2 -16 7 -7 27 6 27 18 0 12 -17 12 -25 -2z"/>
<path d="M3670 1360 c0 -5 5 -10 10 -10 6 0 10 5 10 10 0 6 -4 10 -10 10 -5 0
-10 -4 -10 -10z"/>
<path d="M1842 1329 c2 -6 8 -10 13 -10 5 0 11 4 13 10 2 6 -4 11 -13 11 -9 0
-15 -5 -13 -11z"/>
<path d="M2066 1281 c-4 -5 -2 -12 3 -15 5 -4 12 -2 15 3 4 5 2 12 -3 15 -5 4
-12 2 -15 -3z"/>
<path d="M2850 1280 c0 -5 4 -10 9 -10 6 0 13 5 16 10 3 6 -1 10 -9 10 -9 0
-16 -4 -16 -10z"/>
<path d="M1740 1250 c0 -5 5 -10 10 -10 6 0 10 5 10 10 0 6 -4 10 -10 10 -5 0
-10 -4 -10 -10z"/>
<path d="M2628 1233 c7 -3 16 -2 19 1 4 3 -2 6 -13 5 -11 0 -14 -3 -6 -6z"/>
<path d="M2960 1230 c0 -5 5 -10 10 -10 6 0 10 5 10 10 0 6 -4 10 -10 10 -5 0
-10 -4 -10 -10z"/>
<path d="M1991 1176 c-9 -11 -7 -15 9 -19 25 -6 35 7 16 22 -10 8 -16 8 -25
-3z"/>
<path d="M2093 1168 c2 -7 10 -13 17 -13 7 0 15 6 18 13 2 7 -5 12 -18 12 -13
0 -20 -5 -17 -12z"/>
<path d="M2505 1140 c-3 -5 1 -10 10 -10 9 0 13 5 10 10 -3 6 -8 10 -10 10 -2
0 -7 -4 -10 -10z"/>
<path d="M2007 1094 c-14 -15 -6 -34 14 -34 14 0 19 5 17 17 -3 18 -20 27 -31
17z"/>
<path d="M2290 1090 c-12 -8 -11 -10 8 -10 12 0 22 5 22 10 0 13 -11 13 -30 0z"/>
<path d="M2520 1030 c0 -5 5 -10 11 -10 5 0 7 5 4 10 -3 6 -8 10 -11 10 -2 0
-4 -4 -4 -10z"/>
<path d="M2436 1005 c4 -8 10 -12 15 -9 11 6 2 24 -11 24 -5 0 -7 -7 -4 -15z"/>
</g>
</svg>
